<svg height="3486" width="720" xmlns="http://www.w3.org/2000/svg">
<rect height="3486" fill="#555" width="720"></rect>
<text fill="#7f7" font-family="Courier New" font-size="12" xml:space="preserve">
<tspan x="10" y="26">23 megabytes installed</tspan>
<tspan x="10" y="42"></tspan>
<tspan x="10" y="58">node_modules</tspan>
<tspan x="10" y="74">└─┬ nw-builder@3.2.0 </tspan>
<tspan x="10" y="90">  ├─┬ archiver@1.3.0 </tspan>
<tspan x="10" y="106">  │ ├─┬ archiver-utils@1.3.0 </tspan>
<tspan x="10" y="122">  │ │ ├── lazystream@1.0.0 </tspan>
<tspan x="10" y="138">  │ │ └─┬ normalize-path@2.1.1 </tspan>
<tspan x="10" y="154">  │ │   └── remove-trailing-separator@1.0.1 </tspan>
<tspan x="10" y="170">  │ ├── async@2.3.0 </tspan>
<tspan x="10" y="186">  │ ├── buffer-crc32@0.2.13 </tspan>
<tspan x="10" y="202">  │ ├─┬ glob@7.1.1 </tspan>
<tspan x="10" y="218">  │ │ ├── fs.realpath@1.0.0 </tspan>
<tspan x="10" y="234">  │ │ ├─┬ inflight@1.0.6 </tspan>
<tspan x="10" y="250">  │ │ │ └── wrappy@1.0.2 </tspan>
<tspan x="10" y="266">  │ │ ├─┬ minimatch@3.0.3 </tspan>
<tspan x="10" y="282">  │ │ │ └─┬ brace-expansion@1.1.7 </tspan>
<tspan x="10" y="298">  │ │ │   ├── balanced-match@0.4.2 </tspan>
<tspan x="10" y="314">  │ │ │   └── concat-map@0.0.1 </tspan>
<tspan x="10" y="330">  │ │ ├── once@1.4.0 </tspan>
<tspan x="10" y="346">  │ │ └── path-is-absolute@1.0.1 </tspan>
<tspan x="10" y="362">  │ ├─┬ readable-stream@2.2.9 </tspan>
<tspan x="10" y="378">  │ │ ├── buffer-shims@1.0.0 </tspan>
<tspan x="10" y="394">  │ │ ├── core-util-is@1.0.2 </tspan>
<tspan x="10" y="410">  │ │ ├── isarray@1.0.0 </tspan>
<tspan x="10" y="426">  │ │ ├── process-nextick-args@1.0.7 </tspan>
<tspan x="10" y="442">  │ │ ├── string_decoder@1.0.0 </tspan>
<tspan x="10" y="458">  │ │ └── util-deprecate@1.0.2 </tspan>
<tspan x="10" y="474">  │ ├─┬ tar-stream@1.5.2 </tspan>
<tspan x="10" y="490">  │ │ ├── bl@1.2.0 </tspan>
<tspan x="10" y="506">  │ │ ├── end-of-stream@1.4.0 </tspan>
<tspan x="10" y="522">  │ │ └── xtend@4.0.1 </tspan>
<tspan x="10" y="538">  │ ├── walkdir@0.0.11 </tspan>
<tspan x="10" y="554">  │ └─┬ zip-stream@1.1.1 </tspan>
<tspan x="10" y="570">  │   └─┬ compress-commons@1.2.0 </tspan>
<tspan x="10" y="586">  │     └─┬ crc32-stream@2.0.0 </tspan>
<tspan x="10" y="602">  │       └── crc@3.4.4 </tspan>
<tspan x="10" y="618">  ├── bluebird@3.5.0 </tspan>
<tspan x="10" y="634">  ├─┬ decompress-zip@0.3.0 </tspan>
<tspan x="10" y="650">  │ ├─┬ binary@0.3.0 </tspan>
<tspan x="10" y="666">  │ │ ├── buffers@0.1.1 </tspan>
<tspan x="10" y="682">  │ │ └─┬ chainsaw@0.1.0 </tspan>
<tspan x="10" y="698">  │ │   └── traverse@0.3.9 </tspan>
<tspan x="10" y="714">  │ ├── graceful-fs@4.1.11 </tspan>
<tspan x="10" y="730">  │ ├── mkpath@0.1.0 </tspan>
<tspan x="10" y="746">  │ ├─┬ nopt@3.0.6 </tspan>
<tspan x="10" y="762">  │ │ └── abbrev@1.1.0 </tspan>
<tspan x="10" y="778">  │ ├── q@1.5.0 </tspan>
<tspan x="10" y="794">  │ ├─┬ readable-stream@1.1.14 </tspan>
<tspan x="10" y="810">  │ │ ├── isarray@0.0.1 </tspan>
<tspan x="10" y="826">  │ │ └── string_decoder@0.10.31 </tspan>
<tspan x="10" y="842">  │ └─┬ touch@0.0.3 </tspan>
<tspan x="10" y="858">  │   └── nopt@1.0.10 </tspan>
<tspan x="10" y="874">  ├── deprecate@1.0.0 </tspan>
<tspan x="10" y="890">  ├─┬ graceful-fs-extra@2.0.0 </tspan>
<tspan x="10" y="906">  │ ├─┬ fs-extra@0.30.0 </tspan>
<tspan x="10" y="922">  │ │ ├── jsonfile@2.4.0 </tspan>
<tspan x="10" y="938">  │ │ └── klaw@1.3.1 </tspan>
<tspan x="10" y="954">  │ └─┬ proxyquire@1.7.11 </tspan>
<tspan x="10" y="970">  │   ├─┬ fill-keys@1.0.2 </tspan>
<tspan x="10" y="986">  │   │ ├── is-object@1.0.1 </tspan>
<tspan x="10" y="1002">  │   │ └── merge-descriptors@1.0.1 </tspan>
<tspan x="10" y="1018">  │   ├── module-not-found-error@1.0.1 </tspan>
<tspan x="10" y="1034">  │   └── resolve@1.1.7 </tspan>
<tspan x="10" y="1050">  ├─┬ graceful-ncp@3.0.0 </tspan>
<tspan x="10" y="1066">  │ └── ncp@2.0.0 </tspan>
<tspan x="10" y="1082">  ├── inherits@2.0.3 </tspan>
<tspan x="10" y="1098">  ├── lodash@4.17.4 </tspan>
<tspan x="10" y="1114">  ├─┬ optimist@0.6.1 </tspan>
<tspan x="10" y="1130">  │ ├── minimist@0.0.10 </tspan>
<tspan x="10" y="1146">  │ └── wordwrap@0.0.3 </tspan>
<tspan x="10" y="1162">  ├─┬ platform-overrides@1.0.1 </tspan>
<tspan x="10" y="1178">  │ └── lodash@2.4.2 </tspan>
<tspan x="10" y="1194">  ├─┬ plist@2.0.1 </tspan>
<tspan x="10" y="1210">  │ ├── base64-js@1.1.2 </tspan>
<tspan x="10" y="1226">  │ ├── xmlbuilder@8.2.2 </tspan>
<tspan x="10" y="1242">  │ └── xmldom@0.1.27 </tspan>
<tspan x="10" y="1258">  ├── progress@1.1.8 </tspan>
<tspan x="10" y="1274">  ├── rcedit@0.7.0 </tspan>
<tspan x="10" y="1290">  ├── recursive-readdir-sync@1.0.6 </tspan>
<tspan x="10" y="1306">  ├─┬ request@2.79.0 </tspan>
<tspan x="10" y="1322">  │ ├── aws-sign2@0.6.0 </tspan>
<tspan x="10" y="1338">  │ ├── aws4@1.6.0 </tspan>
<tspan x="10" y="1354">  │ ├── caseless@0.11.0 </tspan>
<tspan x="10" y="1370">  │ ├─┬ combined-stream@1.0.5 </tspan>
<tspan x="10" y="1386">  │ │ └── delayed-stream@1.0.0 </tspan>
<tspan x="10" y="1402">  │ ├── extend@3.0.0 </tspan>
<tspan x="10" y="1418">  │ ├── forever-agent@0.6.1 </tspan>
<tspan x="10" y="1434">  │ ├─┬ form-data@2.1.4 </tspan>
<tspan x="10" y="1450">  │ │ └── asynckit@0.4.0 </tspan>
<tspan x="10" y="1466">  │ ├─┬ har-validator@2.0.6 </tspan>
<tspan x="10" y="1482">  │ │ ├─┬ commander@2.9.0 </tspan>
<tspan x="10" y="1498">  │ │ │ └── graceful-readlink@1.0.1 </tspan>
<tspan x="10" y="1514">  │ │ ├─┬ is-my-json-valid@2.16.0 </tspan>
<tspan x="10" y="1530">  │ │ │ ├── generate-function@2.0.0 </tspan>
<tspan x="10" y="1546">  │ │ │ ├─┬ generate-object-property@1.2.0 </tspan>
<tspan x="10" y="1562">  │ │ │ │ └── is-property@1.0.2 </tspan>
<tspan x="10" y="1578">  │ │ │ └── jsonpointer@4.0.1 </tspan>
<tspan x="10" y="1594">  │ │ └─┬ pinkie-promise@2.0.1 </tspan>
<tspan x="10" y="1610">  │ │   └── pinkie@2.0.4 </tspan>
<tspan x="10" y="1626">  │ ├─┬ hawk@3.1.3 </tspan>
<tspan x="10" y="1642">  │ │ ├── boom@2.10.1 </tspan>
<tspan x="10" y="1658">  │ │ ├── cryptiles@2.0.5 </tspan>
<tspan x="10" y="1674">  │ │ ├── hoek@2.16.3 </tspan>
<tspan x="10" y="1690">  │ │ └── sntp@1.0.9 </tspan>
<tspan x="10" y="1706">  │ ├─┬ http-signature@1.1.1 </tspan>
<tspan x="10" y="1722">  │ │ ├── assert-plus@0.2.0 </tspan>
<tspan x="10" y="1738">  │ │ ├─┬ jsprim@1.4.0 </tspan>
<tspan x="10" y="1754">  │ │ │ ├── assert-plus@1.0.0 </tspan>
<tspan x="10" y="1770">  │ │ │ ├── extsprintf@1.0.2 </tspan>
<tspan x="10" y="1786">  │ │ │ ├── json-schema@0.2.3 </tspan>
<tspan x="10" y="1802">  │ │ │ └── verror@1.3.6 </tspan>
<tspan x="10" y="1818">  │ │ └─┬ sshpk@1.13.0 </tspan>
<tspan x="10" y="1834">  │ │   ├── asn1@0.2.3 </tspan>
<tspan x="10" y="1850">  │ │   ├── assert-plus@1.0.0 </tspan>
<tspan x="10" y="1866">  │ │   ├── bcrypt-pbkdf@1.0.1 </tspan>
<tspan x="10" y="1882">  │ │   ├─┬ dashdash@1.14.1 </tspan>
<tspan x="10" y="1898">  │ │   │ └── assert-plus@1.0.0 </tspan>
<tspan x="10" y="1914">  │ │   ├── ecc-jsbn@0.1.1 </tspan>
<tspan x="10" y="1930">  │ │   ├─┬ getpass@0.1.6 </tspan>
<tspan x="10" y="1946">  │ │   │ └── assert-plus@1.0.0 </tspan>
<tspan x="10" y="1962">  │ │   ├── jodid25519@1.0.2 </tspan>
<tspan x="10" y="1978">  │ │   ├── jsbn@0.1.1 </tspan>
<tspan x="10" y="1994">  │ │   └── tweetnacl@0.14.5 </tspan>
<tspan x="10" y="2010">  │ ├── is-typedarray@1.0.0 </tspan>
<tspan x="10" y="2026">  │ ├── isstream@0.1.2 </tspan>
<tspan x="10" y="2042">  │ ├── json-stringify-safe@5.0.1 </tspan>
<tspan x="10" y="2058">  │ ├─┬ mime-types@2.1.15 </tspan>
<tspan x="10" y="2074">  │ │ └── mime-db@1.27.0 </tspan>
<tspan x="10" y="2090">  │ ├── oauth-sign@0.8.2 </tspan>
<tspan x="10" y="2106">  │ ├── qs@6.3.2 </tspan>
<tspan x="10" y="2122">  │ ├── stringstream@0.0.5 </tspan>
<tspan x="10" y="2138">  │ ├─┬ tough-cookie@2.3.2 </tspan>
<tspan x="10" y="2154">  │ │ └── punycode@1.4.1 </tspan>
<tspan x="10" y="2170">  │ ├── tunnel-agent@0.4.3 </tspan>
<tspan x="10" y="2186">  │ └── uuid@3.0.1 </tspan>
<tspan x="10" y="2202">  ├── rimraf@2.6.1 </tspan>
<tspan x="10" y="2218">  ├── semver@2.3.2 </tspan>
<tspan x="10" y="2234">  ├─┬ simple-glob@0.1.0 </tspan>
<tspan x="10" y="2250">  │ ├─┬ glob@3.2.11 </tspan>
<tspan x="10" y="2266">  │ │ └── minimatch@0.3.0 </tspan>
<tspan x="10" y="2282">  │ ├── lodash@2.4.2 </tspan>
<tspan x="10" y="2298">  │ └─┬ minimatch@0.2.14 </tspan>
<tspan x="10" y="2314">  │   ├── lru-cache@2.7.3 </tspan>
<tspan x="10" y="2330">  │   └── sigmund@1.0.1 </tspan>
<tspan x="10" y="2346">  ├─┬ tar-fs@1.15.2 </tspan>
<tspan x="10" y="2362">  │ ├── chownr@1.0.1 </tspan>
<tspan x="10" y="2378">  │ ├─┬ mkdirp@0.5.1 </tspan>
<tspan x="10" y="2394">  │ │ └── minimist@0.0.8 </tspan>
<tspan x="10" y="2410">  │ └── pump@1.0.2 </tspan>
<tspan x="10" y="2426">  ├─┬ temp@0.7.0 </tspan>
<tspan x="10" y="2442">  │ └── rimraf@2.2.8 </tspan>
<tspan x="10" y="2458">  ├─┬ update-notifier@1.0.3 </tspan>
<tspan x="10" y="2474">  │ ├─┬ boxen@0.6.0 </tspan>
<tspan x="10" y="2490">  │ │ ├── ansi-align@1.1.0 </tspan>
<tspan x="10" y="2506">  │ │ ├── camelcase@2.1.1 </tspan>
<tspan x="10" y="2522">  │ │ ├── cli-boxes@1.0.0 </tspan>
<tspan x="10" y="2538">  │ │ ├── filled-array@1.1.0 </tspan>
<tspan x="10" y="2554">  │ │ ├── object-assign@4.1.1 </tspan>
<tspan x="10" y="2570">  │ │ ├─┬ repeating@2.0.1 </tspan>
<tspan x="10" y="2586">  │ │ │ └─┬ is-finite@1.0.2 </tspan>
<tspan x="10" y="2602">  │ │ │   └── number-is-nan@1.0.1 </tspan>
<tspan x="10" y="2618">  │ │ ├─┬ string-width@1.0.2 </tspan>
<tspan x="10" y="2634">  │ │ │ ├── code-point-at@1.1.0 </tspan>
<tspan x="10" y="2650">  │ │ │ └── is-fullwidth-code-point@1.0.0 </tspan>
<tspan x="10" y="2666">  │ │ └── widest-line@1.0.0 </tspan>
<tspan x="10" y="2682">  │ ├─┬ chalk@1.1.3 </tspan>
<tspan x="10" y="2698">  │ │ ├── ansi-styles@2.2.1 </tspan>
<tspan x="10" y="2714">  │ │ ├── escape-string-regexp@1.0.5 </tspan>
<tspan x="10" y="2730">  │ │ ├─┬ has-ansi@2.0.0 </tspan>
<tspan x="10" y="2746">  │ │ │ └── ansi-regex@2.1.1 </tspan>
<tspan x="10" y="2762">  │ │ ├── strip-ansi@3.0.1 </tspan>
<tspan x="10" y="2778">  │ │ └── supports-color@2.0.0 </tspan>
<tspan x="10" y="2794">  │ ├─┬ configstore@2.1.0 </tspan>
<tspan x="10" y="2810">  │ │ ├─┬ dot-prop@3.0.0 </tspan>
<tspan x="10" y="2826">  │ │ │ └── is-obj@1.0.1 </tspan>
<tspan x="10" y="2842">  │ │ ├── os-tmpdir@1.0.2 </tspan>
<tspan x="10" y="2858">  │ │ ├── osenv@0.1.4 </tspan>
<tspan x="10" y="2874">  │ │ ├── uuid@2.0.3 </tspan>
<tspan x="10" y="2890">  │ │ └─┬ write-file-atomic@1.3.1 </tspan>
<tspan x="10" y="2906">  │ │   ├── imurmurhash@0.1.4 </tspan>
<tspan x="10" y="2922">  │ │   └── slide@1.1.6 </tspan>
<tspan x="10" y="2938">  │ ├── is-npm@1.0.0 </tspan>
<tspan x="10" y="2954">  │ ├─┬ latest-version@2.0.0 </tspan>
<tspan x="10" y="2970">  │ │ └─┬ package-json@2.4.0 </tspan>
<tspan x="10" y="2986">  │ │   ├─┬ got@5.7.1 </tspan>
<tspan x="10" y="3002">  │ │   │ ├─┬ create-error-class@3.0.2 </tspan>
<tspan x="10" y="3018">  │ │   │ │ └── capture-stack-trace@1.0.0 </tspan>
<tspan x="10" y="3034">  │ │   │ ├── duplexer2@0.1.4 </tspan>
<tspan x="10" y="3050">  │ │   │ ├── is-redirect@1.0.0 </tspan>
<tspan x="10" y="3066">  │ │   │ ├── is-retry-allowed@1.1.0 </tspan>
<tspan x="10" y="3082">  │ │   │ ├── is-stream@1.1.0 </tspan>
<tspan x="10" y="3098">  │ │   │ ├── lowercase-keys@1.0.0 </tspan>
<tspan x="10" y="3114">  │ │   │ ├── node-status-codes@1.0.0 </tspan>
<tspan x="10" y="3130">  │ │   │ ├─┬ parse-json@2.2.0 </tspan>
<tspan x="10" y="3146">  │ │   │ │ └─┬ error-ex@1.3.1 </tspan>
<tspan x="10" y="3162">  │ │   │ │   └── is-arrayish@0.2.1 </tspan>
<tspan x="10" y="3178">  │ │   │ ├── read-all-stream@3.1.0 </tspan>
<tspan x="10" y="3194">  │ │   │ ├── timed-out@3.1.3 </tspan>
<tspan x="10" y="3210">  │ │   │ ├── unzip-response@1.0.2 </tspan>
<tspan x="10" y="3226">  │ │   │ └─┬ url-parse-lax@1.0.0 </tspan>
<tspan x="10" y="3242">  │ │   │   └── prepend-http@1.0.4 </tspan>
<tspan x="10" y="3258">  │ │   ├─┬ registry-auth-token@3.1.2 </tspan>
<tspan x="10" y="3274">  │ │   │ └─┬ rc@1.2.1 </tspan>
<tspan x="10" y="3290">  │ │   │   ├── deep-extend@0.4.1 </tspan>
<tspan x="10" y="3306">  │ │   │   ├── ini@1.3.4 </tspan>
<tspan x="10" y="3322">  │ │   │   ├── minimist@1.2.0 </tspan>
<tspan x="10" y="3338">  │ │   │   └── strip-json-comments@2.0.1 </tspan>
<tspan x="10" y="3354">  │ │   ├── registry-url@3.1.0 </tspan>
<tspan x="10" y="3370">  │ │   └── semver@5.3.0 </tspan>
<tspan x="10" y="3386">  │ ├── lazy-req@1.1.0 </tspan>
<tspan x="10" y="3402">  │ ├─┬ semver-diff@2.1.0 </tspan>
<tspan x="10" y="3418">  │ │ └── semver@5.3.0 </tspan>
<tspan x="10" y="3434">  │ └─┬ xdg-basedir@2.0.0 </tspan>
<tspan x="10" y="3450">  │   └── os-homedir@1.0.2 </tspan>
<tspan x="10" y="3466">  └── winresourcer@0.9.0</tspan>
</text>
</svg>
